<?xml version="1.0" encoding="UTF-8" standalone="no"?>
<!DOCTYPE svg PUBLIC "-//W3C//DTD SVG 1.1//EN" "http://www.w3.org/Graphics/SVG/1.1/DTD/svg11.dtd">
<svg width="100%" height="100%" viewBox="0 0 31 24" version="1.1" xmlns="http://www.w3.org/2000/svg" xmlns:xlink="http://www.w3.org/1999/xlink" xml:space="preserve" style="fill-rule:evenodd;clip-rule:evenodd;stroke-linejoin:round;stroke-miterlimit:2;">
  <path d="M30.196,13.752l0,-4.183l-10.64,-0l-0,-5.151l11.058,0l0,-4.418l-16.339,-0l-0,19.712l5.281,0l-0,-5.96l10.64,-0Zm-10.64,10.248l11.66,0l-0,-4.288l-11.66,0l-0,4.288Z"/>
  <path d="M6.327,24l7.974,0l-0,-4.288l-7.974,0l-0,4.288Z M0,13.804l5.307,-0l0,-4.288l-5.307,0l0,4.288Z" style="fill:#a0ef6e;"/>
  <path d="M8.941,13.804l21.255,-0l0,-4.288l-21.255,0l0,4.288Z" style="fill:#56bc2f;"/>
</svg>